<svg width="24" height="22" viewBox="0 0 24 22" fill="none" xmlns="http://www.w3.org/2000/svg">
<path d="M22.5153 15.6141C21.9346 15.3327 19.1008 13.9261 18.5898 13.7151C18.0556 13.5275 17.6839 13.4337 17.2891 13.9964C16.8942 14.5825 15.8025 15.8954 15.4773 16.2705C15.1521 16.6691 14.8037 16.716 14.223 16.4112C13.6424 16.1299 11.7842 15.4969 9.60078 13.5275C7.88194 11.9802 6.7438 10.0812 6.39538 9.49505C6.0702 8.90894 6.34893 8.60416 6.65088 8.29938C6.90639 8.04149 7.23157 7.61948 7.5103 7.29126C7.78903 6.96304 7.90517 6.70515 8.09099 6.33003C8.27681 5.93148 8.1839 5.60325 8.04454 5.32192C7.90517 5.04058 6.7438 2.18035 6.27925 1.00812C5.8147 -0.117222 5.32692 0.0234446 4.97851 0H3.86359C3.46872 0 2.8648 0.140668 2.33057 0.726782C1.81957 1.3129 0.333008 2.71957 0.333008 5.57981C0.333008 8.44005 2.40026 11.2065 2.67899 11.5816C2.95772 11.9802 6.7438 17.8413 12.5042 20.3499C13.8746 20.9594 14.9431 21.3111 15.7793 21.569C17.1497 22.0144 18.404 21.9441 19.4028 21.8034C20.5177 21.6393 22.8172 20.3968 23.2818 19.037C23.7695 17.6772 23.7696 16.5284 23.607 16.2705C23.4444 16.0126 23.0959 15.8954 22.5153 15.6141Z" fill="white"/>
</svg>
