<svg width="55" height="55" viewBox="0 0 55 55" fill="none" xmlns="http://www.w3.org/2000/svg">
<circle cx="27.5" cy="27.5" r="27.5" fill="#ABD3DE"/>
<path d="M39.4863 33.4622V37.0713C39.4877 37.4064 39.4189 37.738 39.2844 38.045C39.1499 38.352 38.9527 38.6276 38.7053 38.8541C38.4579 39.0806 38.1659 39.253 37.8478 39.3604C37.5298 39.4677 37.1928 39.5076 36.8585 39.4774C33.1492 39.0752 29.5862 37.8102 26.4557 35.7841C23.5432 33.937 21.0739 31.4726 19.2231 28.5659C17.1859 25.4274 15.9182 21.8541 15.5225 18.1356C15.4924 17.8029 15.532 17.4676 15.6388 17.151C15.7456 16.8345 15.9173 16.5436 16.143 16.2969C16.3686 16.0502 16.6433 15.853 16.9494 15.7181C17.2556 15.5831 17.5866 15.5132 17.9213 15.5129H21.5375C22.1225 15.5072 22.6897 15.7139 23.1332 16.0946C23.5768 16.4753 23.8665 17.004 23.9484 17.5822C24.101 18.7372 24.3841 19.8712 24.7922 20.9627C24.9544 21.3933 24.9895 21.8613 24.8933 22.3111C24.7972 22.761 24.5738 23.174 24.2498 23.5011L22.7189 25.0289C24.4349 28.0408 26.9336 30.5346 29.9514 32.2472L31.4823 30.7193C31.81 30.3959 32.2238 30.1729 32.6746 30.077C33.1254 29.9811 33.5943 30.0161 34.0257 30.1779C35.1194 30.5852 36.2557 30.8677 37.413 31.0201C37.9985 31.1025 38.5333 31.3969 38.9156 31.8471C39.2979 32.2974 39.501 32.8722 39.4863 33.4622Z" stroke="#454545" stroke-width="2.82051" stroke-linecap="round" stroke-linejoin="round"/>
</svg>
