<svg width="34" height="34" viewBox="0 0 34 34" fill="none" xmlns="http://www.w3.org/2000/svg">
<path d="M28.4532 5.11769C26.9187 3.5677 25.091 2.33876 23.0766 1.50254C21.0622 0.666327 18.9015 0.239572 16.7204 0.24717C7.58194 0.24717 0.133898 7.69521 0.133898 16.8337C0.133898 19.7627 0.903808 22.608 2.34321 25.1186L0 33.7215L8.78702 31.4118C11.2139 32.734 13.9421 33.437 16.7204 33.437C25.8589 33.437 33.307 25.989 33.307 16.8505C33.307 12.4151 31.5831 8.24754 28.4532 5.11769ZM16.7204 30.6252C14.2433 30.6252 11.8165 29.9557 9.69083 28.7004L9.18871 28.3991L3.96671 29.7716L5.3559 24.6835L5.02115 24.1646C3.64493 21.967 2.91418 19.4267 2.91227 16.8337C2.91227 9.23503 9.10503 3.04228 16.7037 3.04228C20.3859 3.04228 23.8505 4.48168 26.4447 7.09268C27.7293 8.37134 28.7473 9.89224 29.4397 11.5672C30.1321 13.2422 30.4852 15.038 30.4784 16.8505C30.5119 24.4491 24.3191 30.6252 16.7204 30.6252ZM24.2856 20.315C23.8672 20.1142 21.8253 19.11 21.4571 18.9593C21.0721 18.8254 20.8043 18.7585 20.5198 19.1602C20.2353 19.5786 19.4486 20.5159 19.2143 20.7837C18.98 21.0682 18.7289 21.1017 18.3105 20.8841C17.892 20.6833 16.5531 20.2314 14.9798 18.8254C13.7412 17.7208 12.9211 16.3651 12.67 15.9466C12.4357 15.5282 12.6366 15.3106 12.8542 15.093C13.0383 14.9089 13.2726 14.6077 13.4734 14.3733C13.6743 14.139 13.758 13.9549 13.8919 13.6871C14.0258 13.4026 13.9588 13.1683 13.8584 12.9674C13.758 12.7666 12.9211 10.7246 12.5864 9.88779C12.2516 9.0844 11.9001 9.18482 11.6491 9.16809H10.8457C10.5612 9.16809 10.126 9.26851 9.74104 9.68694C9.37282 10.1054 8.30164 11.1096 8.30164 13.1515C8.30164 15.1935 9.79125 17.1685 9.9921 17.4363C10.1929 17.7208 12.9211 21.9051 17.0719 23.696C18.0594 24.1311 18.8293 24.3822 19.4319 24.5663C20.4194 24.8843 21.3232 24.8341 22.0429 24.7337C22.8463 24.6165 24.5032 23.7294 24.838 22.7587C25.1895 21.7879 25.1895 20.9678 25.0723 20.7837C24.9551 20.5996 24.7041 20.5159 24.2856 20.315Z" fill="white"/>
</svg>
